# Blender 4.2.3 LTS
# www.blender.org
mtllib Pista - Copia.mtl
o pista_teste
v -5.392707 0.000000 6.040908
v 5.392707 0.000000 6.040908
v -5.392707 0.000000 -6.040908
v 5.392707 0.000000 -6.040908
v -5.449736 -0.131794 1.000000
v -5.449736 0.035947 1.000000
v -5.449736 -0.131794 -1.000000
v -5.449736 0.035947 -1.000000
v 5.449736 -0.131794 1.000000
v 5.449736 0.035947 1.000000
v 5.449736 -0.131794 -1.000000
v 5.449736 0.035947 -1.000000
vn -0.0000 1.0000 -0.0000
vn -1.0000 -0.0000 -0.0000
vn -0.0000 -0.0000 -1.0000
vn 1.0000 -0.0000 -0.0000
vn -0.0000 -0.0000 1.0000
vn -0.0000 -1.0000 -0.0000
vt 0.167273 -0.000000
vt 0.461956 1.000000
vt 0.167273 1.000000
vt 1.003351 -0.014177
vt -0.003352 0.985717
vt -0.003352 -0.014177
vt 1.003351 0.985717
vt -0.003352 0.000593
vt 1.003351 0.000593
vt -0.003352 1.000487
vt 1.003351 1.000487
vt -0.003352 0.989146
vt 0.999945 1.000487
vt 0.999945 0.000593
vt 0.000054 0.000593
vt 0.461956 0.000000
vt 1.003351 0.989146
vt 0.000054 1.000487
s 0
usemtl Materiais
f 2/1/1 3/2/1 1/3/1
f 2/1/1 4/16/1 3/2/1
usemtl Materiais.002
f 6/4/2 7/5/2 5/6/2
f 8/7/3 11/8/3 7/5/3
f 12/9/4 9/10/4 11/8/4
f 10/11/5 5/12/5 9/10/5
f 11/8/6 5/13/6 7/14/6
f 8/15/1 10/11/1 12/9/1
f 6/4/2 8/7/2 7/5/2
f 8/7/3 12/9/3 11/8/3
f 12/9/4 10/11/4 9/10/4
f 10/11/5 6/17/5 5/12/5
f 11/8/6 9/10/6 5/13/6
f 8/15/1 6/18/1 10/11/1
